<svg width="25" height="25" viewBox="0 0 25 25" fill="none" xmlns="http://www.w3.org/2000/svg">
<path fill-rule="evenodd" clip-rule="evenodd" d="M0 12.5C0 5.597 5.597 0 12.5 0C19.403 0 25 5.597 25 12.5C25 19.403 19.403 25 12.5 25C5.597 25 0 19.403 0 12.5ZM21 12.5C21 7.813 17.187 4 12.5 4C7.813 4 4 7.813 4 12.5C4 17.187 7.813 21 12.5 21C17.187 21 21 17.187 21 12.5Z" fill="#4D4D4D"/>
<path d="M12.5 17C14.9853 17 17 14.9853 17 12.5C17 10.0147 14.9853 8 12.5 8C10.0147 8 8 10.0147 8 12.5C8 14.9853 10.0147 17 12.5 17Z" fill="#4D4D4D"/>
</svg>
